<svg xmlns="http://www.w3.org/2000/svg" viewBox="0 0 64 64" role="img" aria-label="Joy assistant">
  <defs>
    <linearGradient id="joyTeal" x1="0" y1="0" x2="1" y2="1">
      <stop offset="0" stop-color="#1A8BA8"/>
      <stop offset="1" stop-color="#0A5670"/>
    </linearGradient>
  </defs>
  <!-- Brand teal rounded badge (matches the project's tc-logo / feature-chip motif) -->
  <rect x="2" y="2" width="60" height="60" rx="18" fill="url(#joyTeal)"/>
  <!-- White chat bubble with a tail -->
  <path d="M16 16h32a6 6 0 0 1 6 6v14a6 6 0 0 1-6 6H28l-10 8v-8h-2a6 6 0 0 1-6-6V22a6 6 0 0 1 6-6z" fill="#ffffff"/>
  <!-- Friendly smile inside the bubble -->
  <circle cx="26" cy="27" r="2.6" fill="#0D6E8A"/>
  <circle cx="38" cy="27" r="2.6" fill="#0D6E8A"/>
  <path d="M25 33c1.8 2.6 4.2 3.9 7 3.9s5.2-1.3 7-3.9" fill="none" stroke="#0D6E8A" stroke-width="2.6" stroke-linecap="round"/>
</svg>
